<svg width="20" height="27" viewBox="0 0 20 27" fill="none" xmlns="http://www.w3.org/2000/svg">
<path d="M0.275568 27V0.818181H10.6051C12.5909 0.818181 14.2827 1.19744 15.6804 1.95597C17.0781 2.70597 18.1435 3.75 18.8764 5.08807C19.6179 6.41761 19.9886 7.9517 19.9886 9.69034C19.9886 11.429 19.6136 12.9631 18.8636 14.2926C18.1136 15.6222 17.027 16.6577 15.6037 17.3991C14.1889 18.1406 12.4759 18.5114 10.4645 18.5114H3.88068V14.0753H9.5696C10.6349 14.0753 11.5128 13.892 12.2031 13.5256C12.902 13.1506 13.4219 12.6349 13.7628 11.9787C14.1122 11.3139 14.2869 10.5511 14.2869 9.69034C14.2869 8.82102 14.1122 8.0625 13.7628 7.41477C13.4219 6.75852 12.902 6.25142 12.2031 5.89347C11.5043 5.52699 10.6179 5.34375 9.54403 5.34375H5.81108V27H0.275568Z" fill="#8038D9"/>
</svg>
