<svg width="28" height="41" viewBox="0 0 28 41" fill="none" xmlns="http://www.w3.org/2000/svg">
<path d="M-7.62939e-06 13.9574C-7.62939e-06 21.6659 6.24895 27.9149 13.9574 27.9149C18.81 27.9149 22.9946 25.5316 25.4956 21.7736C26.9675 19.562 27.9149 16.8133 27.9149 13.9574C27.9149 6.24896 21.6659 0 13.9574 0C6.24895 0 -7.62939e-06 6.24896 -7.62939e-06 13.9574Z" fill="#8038D9"/>
<path d="M13.9575 41L25.2895 22.0266L2.62542 22.0266L13.9575 41Z" fill="#8038D9"/>
<path d="M5.23404 13.9575C5.23404 18.7753 9.13964 22.6809 13.9574 22.6809C16.9903 22.6809 19.6057 21.1914 21.1688 18.8426C22.0887 17.4604 22.6808 15.7425 22.6808 13.9575C22.6808 9.13973 18.7752 5.23413 13.9574 5.23413C9.13964 5.23413 5.23404 9.13973 5.23404 13.9575Z" fill="white"/>
</svg>
