<svg width="27" height="36" viewBox="0 0 27 36" fill="none" xmlns="http://www.w3.org/2000/svg">
<rect x="2.7" width="7.24737" height="36" fill="#8038D9"/>
<path d="M19.7584 7.68343L19.4366 7.36574C18.9835 6.91842 18.4333 6.58158 17.8289 6.38142C17.4088 6.24232 16.9692 6.17143 16.5268 6.17143H15.4895H11.9977C10.2936 6.17143 8.91203 4.78991 8.91203 3.08571C8.91203 1.38152 10.2936 0 11.9977 0H16.1594L16.9702 0.0866727C19.5545 0.362912 21.9593 1.5395 23.7633 3.41038C24.215 3.87874 24.6244 4.386 24.987 4.92627L25.2286 5.28633C26.0745 6.54694 26.6354 7.97685 26.8722 9.47641C26.9573 10.0151 27 10.5597 27 11.105V11.5235C27 12.0689 26.9573 12.6135 26.8722 13.1522C26.6354 14.6517 26.0745 16.0816 25.2286 17.3422L24.8772 17.8659C24.5875 18.2976 24.267 18.7079 23.9183 19.0934C22.0285 21.1826 19.3972 22.4513 16.5857 22.6286H11.9977C10.2936 22.6286 8.91203 21.247 8.91203 19.5429C8.91203 17.8387 10.2936 16.4571 11.9977 16.4571H15.4895H16.5131C16.9646 16.4571 17.4132 16.3848 17.8419 16.2428C18.4383 16.0453 18.9832 15.7174 19.4369 15.2828L19.6963 15.0343C20.5222 14.2432 21.0608 13.1969 21.2263 12.0652C21.299 11.568 21.2982 11.0617 21.2236 10.5647C21.0594 9.47118 20.5454 8.46028 19.7584 7.68343Z" fill="#8038D9"/>
<rect y="16.2" width="18" height="6.3" fill="#8038D9"/>
<rect x="9.94737" width="6.21203" height="6.17143" fill="#8038D9"/>
<rect y="25.2" width="19.8" height="6.3" fill="#8038D9"/>
</svg>
